<mxfile host="app.diagrams.net" modified="2020-08-10T00:00:45.732Z" agent="5.0 (Macintosh; Intel Mac OS X 10_15_5) AppleWebKit/537.36 (KHTML, like Gecko) Chrome/84.0.4147.105 Safari/537.36" etag="CbtKl8yYr3VwuJESykbY" version="13.5.8" type="github">
  <diagram id="fWKy-1vzJJidxvT0rWQ6" name="Page-1">
    <mxGraphModel dx="2066" dy="1105" grid="1" gridSize="10" guides="1" tooltips="1" connect="1" arrows="1" fold="1" page="1" pageScale="1" pageWidth="827" pageHeight="1169" math="0" shadow="0">
      <root>
        <mxCell id="0" />
        <mxCell id="1" parent="0" />
        <mxCell id="YWBlMaOJ3hD-Ug5LIHY1-1" value="&lt;h1&gt;Program 0&lt;/h1&gt;&lt;p&gt;while(1){&lt;/p&gt;&lt;p&gt;&amp;nbsp; &amp;nbsp; while(turn == 2)//busy wait&lt;/p&gt;&lt;p&gt;&amp;nbsp; &amp;nbsp; // critical section&lt;/p&gt;&lt;p&gt;&amp;nbsp; &amp;nbsp; turn = 2&lt;/p&gt;&lt;p&gt;}&lt;/p&gt;" style="text;html=1;fillColor=none;spacing=5;spacingTop=-20;whiteSpace=wrap;overflow=hidden;rounded=0;strokeColor=#00FF00;strokeWidth=2;" vertex="1" parent="1">
          <mxGeometry x="150" y="240" width="190" height="200" as="geometry" />
        </mxCell>
        <mxCell id="YWBlMaOJ3hD-Ug5LIHY1-2" value="&lt;h1&gt;Program 1&lt;/h1&gt;&lt;p&gt;while(1){&lt;/p&gt;&lt;p&gt;&amp;nbsp; &amp;nbsp; while(turn == 1);//busy wait&lt;/p&gt;&lt;p&gt;&amp;nbsp; &amp;nbsp; // critical section&lt;/p&gt;&lt;p&gt;&amp;nbsp; &amp;nbsp; turn = 1&lt;/p&gt;&lt;p&gt;}&lt;/p&gt;" style="text;html=1;fillColor=none;spacing=5;spacingTop=-20;whiteSpace=wrap;overflow=hidden;rounded=0;strokeWidth=2;strokeColor=#FF0080;" vertex="1" parent="1">
          <mxGeometry x="530" y="240" width="190" height="200" as="geometry" />
        </mxCell>
        <mxCell id="YWBlMaOJ3hD-Ug5LIHY1-4" value="turn = 1" style="text;html=1;strokeColor=none;fillColor=none;align=center;verticalAlign=middle;whiteSpace=wrap;rounded=0;" vertex="1" parent="1">
          <mxGeometry x="414" y="190" width="56" height="20" as="geometry" />
        </mxCell>
      </root>
    </mxGraphModel>
  </diagram>
</mxfile>
